<mxfile host="app.diagrams.net" modified="2020-08-30T18:51:38.362Z" agent="5.0 (Windows NT 10.0; Win64; x64) AppleWebKit/537.36 (KHTML, like Gecko) Chrome/79.0.3945.130 Safari/537.36" etag="Pmo2e2fw1eCO8igUlZdM" version="13.6.5" type="github">
  <diagram id="1ENmV_RYZOypXNoON4rG" name="Page-1">
    <mxGraphModel dx="1038" dy="531" grid="1" gridSize="10" guides="1" tooltips="1" connect="1" arrows="1" fold="1" page="1" pageScale="1" pageWidth="850" pageHeight="1100" math="0" shadow="0">
      <root>
        <mxCell id="0" />
        <mxCell id="1" parent="0" />
        <mxCell id="_bxbfB43asYb-mrdhIal-4" value="" style="pointerEvents=1;shadow=0;dashed=0;html=1;strokeColor=none;fillColor=#434445;aspect=fixed;labelPosition=center;verticalLabelPosition=bottom;verticalAlign=top;align=center;outlineConnect=0;shape=mxgraph.vvd.web_browser;" parent="1" vertex="1">
          <mxGeometry x="110" y="160" width="50" height="35.5" as="geometry" />
        </mxCell>
        <mxCell id="_bxbfB43asYb-mrdhIal-5" value="" style="aspect=fixed;html=1;points=[];align=center;image;fontSize=12;image=img/lib/mscae/Service_Bus.svg;" parent="1" vertex="1">
          <mxGeometry x="280" y="152.75" width="50" height="50" as="geometry" />
        </mxCell>
        <mxCell id="_bxbfB43asYb-mrdhIal-9" value="" style="endArrow=classic;html=1;" parent="1" edge="1">
          <mxGeometry relative="1" as="geometry">
            <mxPoint x="190" y="177.25" as="sourcePoint" />
            <mxPoint x="260" y="177.25" as="targetPoint" />
            <Array as="points" />
          </mxGeometry>
        </mxCell>
        <mxCell id="_bxbfB43asYb-mrdhIal-10" value="" style="shape=message;html=1;outlineConnect=0;" parent="_bxbfB43asYb-mrdhIal-9" vertex="1">
          <mxGeometry width="20" height="14" relative="1" as="geometry">
            <mxPoint x="-10" y="-7" as="offset" />
          </mxGeometry>
        </mxCell>
        <mxCell id="_bxbfB43asYb-mrdhIal-12" value="" style="aspect=fixed;html=1;points=[];align=center;image;fontSize=12;image=img/lib/mscae/Functions.svg;" parent="1" vertex="1">
          <mxGeometry x="440" y="157" width="50" height="46" as="geometry" />
        </mxCell>
        <mxCell id="_bxbfB43asYb-mrdhIal-13" value="" style="endArrow=classic;html=1;" parent="1" edge="1">
          <mxGeometry width="50" height="50" relative="1" as="geometry">
            <mxPoint x="430" y="180" as="sourcePoint" />
            <mxPoint x="360" y="180" as="targetPoint" />
          </mxGeometry>
        </mxCell>
        <mxCell id="_bxbfB43asYb-mrdhIal-14" value="" style="shape=image;html=1;verticalAlign=top;verticalLabelPosition=bottom;labelBackgroundColor=#ffffff;imageAspect=0;aspect=fixed;image=https://cdn3.iconfinder.com/data/icons/social-network-30/512/social-08-128.png" parent="1" vertex="1">
          <mxGeometry x="600" y="142.75" width="70" height="70" as="geometry" />
        </mxCell>
        <mxCell id="_bxbfB43asYb-mrdhIal-15" value="" style="endArrow=classic;startArrow=classic;html=1;" parent="1" edge="1">
          <mxGeometry width="50" height="50" relative="1" as="geometry">
            <mxPoint x="520" y="179.5" as="sourcePoint" />
            <mxPoint x="580" y="179.5" as="targetPoint" />
          </mxGeometry>
        </mxCell>
      </root>
    </mxGraphModel>
  </diagram>
</mxfile>
